# xmcd
#
# Track frame offsets: 
#        150
#        12530
#        25665
#        38730
#        49770
#        61333
#        74785
#        88438
#        102023
#        115790
#        129780
#
# Disc length: 1883 seconds
#
# Revision: 9
# Processed by: cddbd v1.5.2PL0 Copyright (c) Steve Scherf et al.
# Submitted via: ExactAudioCopyFreeDBPlugin 1.0
#
DISCID=9107590b
DTITLE=Otis Redding - (Sittin' On) The Dock Of The Bay
DYEAR=1968
DGENRE=Soul
TTITLE0=(Sittin' On) The Dock Of The Bay
TTITLE1=I Love You More Than Words Can Say
TTITLE2=Let Me Come On Home
TTITLE3=Open The Door
TTITLE4=Don't Mess With Cupid
TTITLE5=The Glory Of Love
TTITLE6=I'm Coming Home To See About You
TTITLE7=Tramp
TTITLE8=The Huckle-Buck
TTITLE9=Nobody Knows You (When You're Down And Out)
TTITLE10=Ole Man Trouble
EXTD=YEAR: 1968
EXTT0=
EXTT1=
EXTT2=
EXTT3=
EXTT4=
EXTT5=
EXTT6=
EXTT7=
EXTT8=
EXTT9=
EXTT10=
PLAYORDER=
